HIERARCHY
ROOT Hips
{
	OFFSET 0.000000 0.000000 0.000000
	CHANNELS 6 Xposition Yposition Zposition Zrotation Yrotation Xrotation 
	JOINT LHipJoint
	{
		OFFSET 0.000000 0.000000 0.000000
		CHANNELS 3 Zrotation Yrotation Xrotation
		JOINT LeftUpLeg
		{
			OFFSET 1.363060 -1.794630 0.839290
			CHANNELS 3 Zrotation Yrotation Xrotation
			JOINT LeftLeg
			{
				OFFSET 2.448110 -6.726130 0.000000
				CHANNELS 3 Zrotation Yrotation Xrotation
				JOINT LeftFoot
				{
					OFFSET 2.562200 -7.039590 0.000000
					CHANNELS 3 Zrotation Yrotation Xrotation
					JOINT LeftToeBase
					{
						OFFSET 0.157640 -0.433110 2.322550
						CHANNELS 3 Zrotation Yrotation Xrotation
						End Site
						{
							OFFSET 0.000000 0.000000 0.000000
						}
					}
				}
			}
		}
	}
	JOINT RHipJoint
	{
		OFFSET 0.000000 0.000000 0.000000
		CHANNELS 3 Zrotation Yrotation Xrotation
		JOINT RightUpLeg
		{
			OFFSET -1.305520 -1.794630 0.839290
			CHANNELS 3 Zrotation Yrotation Xrotation
			JOINT RightLeg
			{
				OFFSET -2.542530 -6.985550 0.000000
				CHANNELS 3 Zrotation Yrotation Xrotation
				JOINT RightFoot
				{
					OFFSET -2.568260 -7.056230 0.000000
					CHANNELS 3 Zrotation Yrotation Xrotation
					JOINT RightToeBase
					{
						OFFSET -0.164730 -0.452590 2.363150
						CHANNELS 3 Zrotation Yrotation Xrotation
						End Site
						{
							OFFSET 0.000000 0.000000 0.000000
						}
					}
				}
			}
		}
	}
}
MOTION
Frames: 27
Frame Time: 0.008333
-1.648979 17.874871 -1.114683 -127.449568 85.495414 -108.897684 -10.660719 0.342078 2.545668 -14.747835 -0.336293 -33.206508 -2.368864 -0.824234 6.920881 0.899780 6.831266 4.782369 2.042000 -0.000000 -33.705900 8.768807 -3.996336 -0.607026 10.650479 -6.590309 -7.828576 2.038277 -1.562935 17.209712 0.290488 3.982725 19.189000 1.477500 -0.000000 -70.529600
-1.418558 17.877726 -1.165742 -127.827851 85.269631 -109.551460 -10.766040 0.462655 2.422606 -15.600873 0.974533 -33.016637 -2.534562 -0.857180 5.757118 0.700475 5.901812 6.173585 1.976700 0.000000 -34.203000 8.775721 -4.083187 -0.601920 10.491070 -6.942377 -7.952652 1.891040 -1.702100 18.961997 0.225557 3.847782 19.582815 1.475600 0.000000 -70.826400
-1.190756 17.868521 -1.216902 -128.341268 85.062489 -110.323961 -10.851405 0.579939 2.305497 -16.425225 2.131815 -32.885656 -2.667143 -0.869975 5.085423 0.569838 5.240594 7.035471 1.890200 0.000000 -33.670700 8.778943 -4.143618 -0.597072 10.321763 -7.199167 -8.213141 1.726008 -1.841253 21.004422 0.138488 3.408181 19.505044 1.308400 -0.000001 -70.992200
-0.966106 17.847121 -1.267785 -129.033673 84.875519 -111.258141 -10.915859 0.687547 2.214492 -17.149902 3.014377 -32.727830 -2.753501 -0.873339 4.796671 0.515213 4.951190 7.361960 1.840100 -0.000000 -32.150600 8.781005 -4.173645 -0.609014 10.135395 -7.389539 -8.584958 1.546459 -1.979921 23.294766 0.030302 2.688102 19.004384 0.998500 -0.000000 -70.880799
-0.745125 17.813371 -1.318197 -129.817768 84.695900 -112.278679 -10.962810 0.778521 2.144375 -17.739317 3.625508 -32.518101 -2.793686 -0.867987 4.882263 0.527650 4.989604 7.114238 1.823100 0.000000 -29.669900 8.779747 -4.175315 -0.642527 9.947397 -7.515148 -9.018136 1.357475 -2.116093 25.755901 -0.101411 1.694895 18.156780 0.570400 -0.000000 -70.585100
-0.528014 17.767263 -1.367920 -130.677396 84.523461 -113.372177 -10.993457 0.847035 2.101232 -18.163285 3.922762 -32.221514 -2.785990 -0.857937 5.291304 0.606077 5.349616 6.306069 1.833300 -0.000000 -26.390800 8.777213 -4.148477 -0.704868 9.752567 -7.597940 -9.493107 1.163145 -2.249770 28.345167 -0.256591 0.478421 17.027023 0.070100 0.000000 -70.051100
-0.314760 17.708991 -1.416674 -131.597996 84.361959 -114.525721 -11.007454 0.888974 2.087632 -18.415599 3.883832 -31.823491 -2.732823 -0.845229 5.987256 0.748965 5.999185 4.970197 1.842800 -0.000000 -22.548300 8.776863 -4.093465 -0.799115 9.539533 -7.653759 -9.996989 0.966793 -2.381096 31.023889 -0.434521 -0.906310 15.678848 -0.455500 0.000000 -69.276100
-0.105285 17.638744 -1.464478 -132.540271 84.207625 -115.696384 -11.007442 0.904244 2.095074 -18.527153 3.563578 -31.392101 -2.646309 -0.822265 7.031399 0.945268 6.817236 3.118813 1.788500 -0.000000 -18.359300 8.778157 -4.014951 -0.917511 9.313273 -7.687108 -10.541668 0.771174 -2.510366 33.775439 -0.632849 -2.404734 14.165645 -0.964800 0.000000 -68.187400
0.100687 17.557261 -1.510894 -133.549819 84.077973 -116.924706 -10.988111 0.894599 2.126663 -18.529910 2.944168 -30.929192 -2.533121 -0.789931 8.377903 1.196079 7.788578 0.836733 1.640600 0.000000 -14.143900 8.789785 -3.911536 -1.057539 9.043305 -7.705229 -11.134856 0.576798 -2.637790 36.577968 -0.847558 -3.956084 12.539763 -1.420100 -0.000000 -66.861900
0.303548 17.465294 -1.555799 -134.631085 83.976998 -118.206128 -10.949325 0.866033 2.171230 -18.483489 2.103089 -30.516119 -2.409826 -0.738943 10.080378 1.488615 8.807363 -1.822294 1.351000 -0.000000 -10.110600 8.815050 -3.786816 -1.205412 8.723721 -7.699522 -11.801667 0.384268 -2.763197 39.425149 -1.072998 -5.509372 10.839795 -1.795400 0.000000 -65.275600
0.503668 17.363918 -1.599082 -135.800825 83.909650 -119.548606 -10.891359 0.826465 2.217110 -18.445187 1.124150 -30.222293 -2.292485 -0.660911 12.168170 1.808519 9.790489 -4.782122 0.896200 0.000000 -6.422800 8.858293 -3.643721 -1.346592 8.347707 -7.656309 -12.566033 0.193646 -2.886177 42.308983 -1.302557 -7.019513 9.099553 -2.074100 0.000000 -63.445200
0.701519 17.254444 -1.640724 -137.058523 83.873675 -120.941628 -10.817730 0.784429 2.252481 -18.458810 0.102296 -30.108719 -2.194800 -0.548401 14.650858 2.138617 10.668586 -7.952765 0.279000 0.000001 -3.186500 8.921783 -3.486260 -1.464991 7.920318 -7.553580 -13.449614 0.005252 -3.006096 45.217073 -1.529812 -8.453240 7.346753 -2.250000 0.000000 -61.406500
0.897422 17.138628 -1.680702 -138.418630 83.866890 -122.395876 -10.733740 0.748891 2.264797 -18.555919 -0.869467 -30.203662 -2.125856 -0.396509 17.501258 2.461098 11.396357 -11.228077 -0.469600 0.000001 -0.453700 9.007378 -3.317362 -1.549506 7.444937 -7.375042 -14.460849 -0.180470 -3.122743 48.130373 -1.747849 -9.778308 5.606861 -2.323099 0.000000 -59.170099
1.091843 17.018430 -1.719273 -139.872250 83.877364 -123.891347 -10.646047 0.726303 2.252051 -18.740113 -1.733820 -30.510350 -2.085990 -0.207036 20.638893 2.763232 11.968440 -14.493234 178.701700 -0.000000 -1.742700 9.113797 -3.140906 -1.588823 6.940682 -7.097730 -15.609982 -0.362542 -3.235610 51.022473 -1.952134 -10.980145 3.898930 -2.302200 -0.000000 -56.817400
1.285048 16.896302 -1.756572 -141.443692 83.896277 -125.451529 -10.559692 0.721792 2.213064 -19.008692 -2.453586 -30.990127 -2.070500 0.013331 23.945062 3.035970 12.399056 -17.636937 177.849700 0.000000 -3.411900 9.239632 -2.958573 -1.579990 6.417128 -6.712816 -16.887703 -0.539949 -3.344721 53.858250 -2.138272 -12.042583 2.242356 -2.199100 -0.000000 -54.403500
1.477320 16.774934 -1.792816 -143.174492 83.913286 -127.120229 -10.476992 0.738216 2.150567 -19.352248 -3.017891 -31.577310 -2.071489 0.252749 27.275158 3.275324 12.716050 -20.565915 177.023700 0.000000 -4.591600 9.382599 -2.770934 -1.524411 5.880474 -6.219383 -18.275620 -0.711427 -3.450064 56.596328 -2.303080 -12.954853 0.654049 -2.028900 0.000000 -52.001000
1.668862 16.657212 -1.828248 -145.127448 83.918355 -128.967654 -10.397030 0.776570 2.068376 -19.760841 -3.432936 -32.189731 -2.081583 0.496770 30.481318 3.480784 12.947324 -23.214147 176.259400 -0.000000 -5.345500 9.540004 -2.577660 -1.427639 5.331897 -5.626621 -19.745682 -0.875442 -3.551627 59.192314 -2.444171 -13.708831 -0.851632 -1.808100 -0.000000 -49.684100
1.859805 16.546020 -1.863258 -147.349884 83.898032 -131.054491 -10.318248 0.835364 1.969287 -20.220222 -3.711666 -32.739272 -2.095956 0.730864 33.431111 3.653136 13.110910 -25.546131 175.578300 0.000000 -5.754400 9.707276 -2.379036 -1.298287 4.773730 -4.950788 -21.260842 -1.029810 -3.649360 61.600321 -2.560099 -14.300761 -2.263289 -1.553900 0.000000 -47.510800
2.050116 16.443948 -1.898649 -149.811523 83.830908 -133.371099 -10.242691 0.909406 1.852905 -20.702798 -3.861757 -33.141721 -2.113004 0.942701 36.023180 3.792055 13.207326 -27.556941 174.992600 -0.000001 -5.905400 9.875581 -2.178175 -1.147462 4.221111 -4.210442 -22.773267 -1.171464 -3.743071 63.774761 -2.650906 -14.735484 -3.572211 -1.283000 0.000000 -45.532700
2.240635 16.353204 -1.934472 -152.639660 83.717052 -136.043503 -10.157769 0.999338 1.732471 -21.219089 -3.940971 -33.333375 -2.133455 1.119843 38.161909 3.905168 13.262959 -29.246965 174.501499 0.000000 -5.886800 10.048172 -1.972456 -0.979697 3.645725 -3.433624 -24.278642 -1.298767 -3.832783 65.696499 -2.714119 -14.999297 -4.776523 -1.007200 0.000000 -43.761301
2.431122 16.275416 -1.972336 -155.588980 83.523995 -138.856158 -10.076767 1.093479 1.601884 -21.713166 -3.937916 -33.254404 -2.159777 1.256805 39.814131 3.987796 13.247006 -30.649868 174.109600 -0.000001 -5.770900 10.207107 -1.771288 -0.808427 3.093479 -2.635061 -25.716484 -1.407399 -3.917564 67.326778 -2.752795 -15.115380 -5.872094 -0.740800 0.000000 -42.219300
2.622104 16.211702 -2.013201 -158.514538 83.243813 -141.669453 -10.001955 1.186102 1.468216 -22.160229 -3.880286 -32.878324 -2.194252 1.348944 40.955195 4.041412 13.154191 -31.790801 173.815900 -0.000000 -5.614000 10.344833 -1.578706 -0.638222 2.576982 -1.828105 -27.073160 -1.495026 -3.995698 68.654691 -2.768328 -15.093439 -6.860184 -0.492600 0.000001 -40.886399
2.814075 16.162539 -2.057972 -161.253557 82.875146 -144.326663 -9.937066 1.272286 1.337194 -22.535708 -3.791503 -32.192464 -2.238365 1.394980 41.583521 4.066568 12.978453 -32.693136 173.619100 0.000001 -5.447000 10.454184 -1.397671 -0.473955 2.110268 -1.024559 -28.336102 -1.559857 -4.064838 69.676392 -2.763078 -14.948622 -7.742733 -0.269100 -0.000000 -39.747200
3.007564 16.127991 -2.107635 -163.625374 82.422734 -146.648714 -9.887663 1.348117 1.214360 -22.811536 -3.687970 -31.208526 -2.291863 1.396713 41.722035 4.062569 12.712584 -33.374442 173.519301 0.000000 -5.272800 10.528276 -1.230525 -0.317643 1.714606 -0.227546 -29.500183 -1.600795 -4.121652 70.395526 -2.740735 -14.702970 -8.523031 -0.074199 0.000000 -38.778000
3.203098 16.107686 -2.162995 -165.492910 81.896868 -148.493847 -9.858687 1.411641 1.105851 -22.963232 -3.584352 -29.960591 -2.352334 1.358346 41.413375 4.028495 12.354172 -33.842485 173.516700 -0.000000 -5.068000 10.562500 -1.077912 -0.168391 1.411719 0.564722 -30.570596 -1.617505 -4.162417 70.821566 -2.706041 -14.383381 -9.205317 0.090100 0.000000 -37.952600
3.401191 16.100999 -2.224475 -166.811520 81.311497 -149.810531 -9.852650 1.463195 1.016969 -22.977792 -3.494022 -28.493100 -2.415686 1.285690 40.711547 3.963648 11.908192 -34.093499 173.609699 0.000000 -4.789800 10.555905 -0.938646 -0.024141 1.214065 1.353377 -31.556859 -1.610344 -4.184218 70.966873 -2.663965 -14.017163 -9.795233 0.224600 0.000000 -37.256000
3.602223 16.107248 -2.292247 -167.605699 80.679618 -150.614453 -9.871109 1.504554 0.951559 -22.851129 -3.425355 -26.859454 -2.476635 1.185869 39.681153 3.867426 11.385076 -34.115400 173.795400 -0.000001 -4.383300 10.509533 -0.810992 0.118123 1.127479 2.138441 -32.471431 -1.580119 -4.185110 70.843465 -2.619650 -13.631815 -10.299625 0.331300 -0.000001 -36.679800
